<?xml version="1.0" encoding="utf-8"?>
<!-- Generator: Adobe Illustrator 19.2.1, SVG Export Plug-In . SVG Version: 6.00 Build 0)  -->
<svg version="1.1" id="Ebene_1" xmlns="http://www.w3.org/2000/svg" xmlns:xlink="http://www.w3.org/1999/xlink" x="0px" y="0px"
	 viewBox="0 0 25 25" style="enable-background:new 0 0 25 25;" xml:space="preserve">
<style type="text/css">
	.st0{fill-rule:evenodd;clip-rule:evenodd;}
</style>
<g>
	<path class="st0" d="M23.473,10.245c-0.147-0.72-0.367-1.429-0.653-2.106c-0.281-0.664-0.628-1.304-1.033-1.903
		c-0.401-0.593-0.861-1.15-1.367-1.657c-0.507-0.507-1.064-0.967-1.657-1.367c-0.598-0.405-1.239-0.752-1.903-1.034
		c-0.677-0.285-1.385-0.506-2.105-0.652c-0.738-0.151-1.497-0.228-2.255-0.228c-0.759,0-1.518,0.077-2.256,0.228
		C9.525,1.674,8.816,1.895,8.14,2.18C7.476,2.461,6.835,2.808,6.237,3.213c-0.593,0.4-1.15,0.86-1.657,1.367
		C4.074,5.087,3.614,5.644,3.213,6.237C2.809,6.835,2.461,7.475,2.181,8.14c-0.286,0.677-0.506,1.386-0.654,2.106
		C1.376,10.981,1.3,11.741,1.3,12.499c0,0.76,0.077,1.519,0.227,2.257c0.147,0.719,0.367,1.428,0.654,2.104
		c0.28,0.664,0.628,1.306,1.033,1.904c0.401,0.593,0.86,1.15,1.367,1.657c0.507,0.506,1.064,0.965,1.657,1.366
		c0.599,0.404,1.239,0.752,1.903,1.033c0.677,0.287,1.385,0.505,2.105,0.653c0.738,0.152,1.497,0.228,2.256,0.228
		c0.758,0,1.517-0.076,2.255-0.228c0.72-0.148,1.428-0.366,2.105-0.653c0.664-0.281,1.305-0.628,1.903-1.033
		c0.593-0.401,1.15-0.86,1.657-1.366c0.506-0.507,0.966-1.064,1.367-1.657c0.404-0.598,0.752-1.24,1.033-1.904
		c0.286-0.676,0.506-1.385,0.653-2.104c0.151-0.737,0.228-1.496,0.228-2.257C23.7,11.741,23.624,10.981,23.473,10.245z
		 M22.062,12.404c-0.139-0.03-3.376-0.727-6.662-0.313c-0.067-0.164-0.135-0.328-0.206-0.494c-0.199-0.468-0.413-0.932-0.636-1.387
		c3.777-1.542,5.311-3.759,5.329-3.786C21.229,8.053,22.04,10.135,22.062,12.404z M18.818,5.321
		c-0.024,0.037-1.386,2.111-4.997,3.464c-1.635-3.004-3.431-5.391-3.575-5.581c0.723-0.175,1.477-0.27,2.254-0.27
		C14.922,2.935,17.132,3.837,18.818,5.321z M10.209,3.212c0,0.001-0.002,0.002-0.002,0.002s-0.011,0.003-0.029,0.006
		C10.189,3.218,10.199,3.216,10.209,3.212z M8.419,3.849c0.127,0.171,1.896,2.569,3.552,5.512c-4.593,1.22-8.579,1.172-8.831,1.168
		C3.761,7.565,5.751,5.109,8.419,3.849z M2.935,12.499c0-0.102,0.004-0.202,0.008-0.302c0.168,0.003,4.895,0.111,9.82-1.363
		c0.274,0.536,0.536,1.081,0.776,1.626c-0.127,0.035-0.252,0.073-0.377,0.114c-5.162,1.668-7.78,6.313-7.78,6.313
		s0.003,0.002,0.004,0.004C3.862,17.197,2.935,14.957,2.935,12.499z M12.5,22.066c-2.316,0-4.439-0.823-6.093-2.192
		c0.126,0.102,0.214,0.167,0.214,0.167s1.834-3.999,7.507-5.975c0.021-0.008,0.042-0.014,0.063-0.021
		c1.346,3.498,1.902,6.427,2.043,7.263C15.087,21.796,13.825,22.066,12.5,22.066z M17.845,20.434
		c-0.097-0.578-0.607-3.385-1.862-6.833c3.088-0.494,5.764,0.353,5.961,0.418C21.519,16.684,19.993,18.983,17.845,20.434z"/>
</g>
</svg>
