<?xml version="1.0" encoding="utf-8"?>
<!-- Generator: Adobe Illustrator 19.2.1, SVG Export Plug-In . SVG Version: 6.00 Build 0)  -->
<svg version="1.1" id="Ebene_1" xmlns="http://www.w3.org/2000/svg" xmlns:xlink="http://www.w3.org/1999/xlink" x="0px" y="0px"
	 viewBox="0 0 25 25" style="enable-background:new 0 0 25 25;" xml:space="preserve">
<style type="text/css">
	.st0{fill-rule:evenodd;clip-rule:evenodd;}
</style>
<g>
	<path class="st0" d="M17.732,1.302c0,1.292,0,3.606,0,3.606s-2.658-0.265-3.324,0.754c-0.364,0.557-0.148,2.187-0.18,3.357
		c1.16,0,2.365,0,3.525,0c-0.298,1.369-0.511,2.297-0.731,3.481c-1.004,0-2.815,0-2.815,0v11.203c0,0-3.322,0-4.884,0
		c0.001-3.454-0.001-7.483,0-11.16c-0.759,0-1.32,0-2.078,0c0-1.292,0-2.233,0-3.525c0.736,0,1.319,0,2.055,0
		c0.105-2.577,0.145-5.131,1.425-6.431C12.166,1.127,13.538,1.302,17.732,1.302z"/>
</g>
</svg>
