<?xml version="1.0" encoding="utf-8"?>
<!-- Generator: Adobe Illustrator 19.2.1, SVG Export Plug-In . SVG Version: 6.00 Build 0)  -->
<svg version="1.1" id="Ebene_1" xmlns="http://www.w3.org/2000/svg" xmlns:xlink="http://www.w3.org/1999/xlink" x="0px" y="0px"
	 viewBox="0 0 25 25" style="enable-background:new 0 0 25 25;" xml:space="preserve">
<g>
	<path d="M7.318,16.516H4.432c-0.169,0-0.294-0.069-0.374-0.206c-0.081-0.137-0.081-0.282,0-0.436l3.055-5.419
		c0.008,0,0.008-0.004,0-0.012L5.169,7.069C5.073,6.892,5.068,6.743,5.157,6.621C5.229,6.501,5.358,6.44,5.543,6.44h2.886
		c0.321,0,0.587,0.181,0.796,0.544l1.981,3.46c-0.081,0.145-1.115,1.984-3.103,5.516C7.885,16.33,7.624,16.516,7.318,16.516
		L7.318,16.516z M20.935,3.125l-6.374,11.298v0.012l4.057,7.438c0.089,0.162,0.093,0.311,0.012,0.448
		c-0.08,0.12-0.21,0.181-0.386,0.181h-2.886c-0.338,0-0.604-0.181-0.797-0.544l-4.092-7.523c0.145-0.258,2.282-4.057,6.411-11.394
		c0.201-0.363,0.459-0.544,0.773-0.544h2.909c0.178,0,0.303,0.06,0.374,0.181C21.025,2.808,21.025,2.956,20.935,3.125L20.935,3.125z
		 M20.935,3.125"/>
</g>
</svg>
