<?xml version="1.0" encoding="utf-8"?>
<!-- Generator: Adobe Illustrator 19.2.1, SVG Export Plug-In . SVG Version: 6.00 Build 0)  -->
<svg version="1.1" id="Ebene_1" xmlns="http://www.w3.org/2000/svg" xmlns:xlink="http://www.w3.org/1999/xlink" x="0px" y="0px"
	 viewBox="0 0 25 25" style="enable-background:new 0 0 25 25;" xml:space="preserve">
<style type="text/css">
	.st0{fill-rule:evenodd;clip-rule:evenodd;}
</style>
<g>
	<path class="st0" d="M16.536,3.411c1.78-0.031,2.728,0.617,3.633,1.442c0.768-0.066,1.766-0.495,2.354-0.794
		c0.191-0.104,0.381-0.209,0.572-0.313c-0.336,0.908-0.791,1.618-1.491,2.157c-0.155,0.12-0.31,0.281-0.504,0.358
		c0,0.004,0,0.008,0,0.011c0.997-0.01,1.82-0.46,2.601-0.704c0,0.004,0,0.007,0,0.011c-0.41,0.652-0.966,1.314-1.558,1.788
		c-0.239,0.19-0.478,0.38-0.717,0.57c0.013,1.056-0.016,2.063-0.213,2.951c-1.148,5.158-4.189,8.66-9.003,10.161
		c-1.729,0.539-4.522,0.76-6.503,0.268c-0.982-0.244-1.869-0.519-2.702-0.883c-0.463-0.202-0.891-0.421-1.301-0.671
		c-0.135-0.082-0.269-0.164-0.404-0.246c0.447,0.013,0.969,0.136,1.469,0.056C3.22,19.5,3.664,19.52,4.08,19.428
		c1.04-0.228,1.963-0.53,2.758-0.995c0.385-0.226,0.97-0.491,1.244-0.816c-0.516,0.009-0.984-0.11-1.368-0.246
		c-1.487-0.525-2.352-1.49-2.915-2.94c0.45,0.049,1.748,0.167,2.052-0.089c-0.567-0.031-1.112-0.36-1.502-0.604
		c-1.196-0.748-2.171-2.003-2.164-3.935C2.343,9.879,2.5,9.953,2.657,10.028c0.3,0.127,0.606,0.194,0.964,0.268
		c0.151,0.031,0.454,0.12,0.628,0.056c-0.007,0-0.015,0-0.022,0c-0.231-0.269-0.608-0.449-0.841-0.738
		C2.618,8.661,1.899,7.193,2.354,5.445C2.469,5.001,2.652,4.61,2.847,4.249C2.855,4.253,2.862,4.256,2.87,4.26
		c0.089,0.187,0.288,0.324,0.415,0.481C3.676,5.226,4.16,5.663,4.652,6.049c1.678,1.312,3.189,2.119,5.617,2.716
		c0.616,0.151,1.327,0.267,2.063,0.268c-0.207-0.602-0.14-1.575,0.022-2.157c0.409-1.464,1.297-2.519,2.601-3.085
		c0.312-0.135,0.657-0.234,1.02-0.313C16.162,3.455,16.349,3.433,16.536,3.411z"/>
</g>
</svg>
